<?xml version="1.0" standalone="no"?>
<!DOCTYPE svg PUBLIC "-//W3C//DTD SVG 20010904//EN"
 "http://www.w3.org/TR/2001/REC-SVG-20010904/DTD/svg10.dtd">
<svg version="1.0" xmlns="http://www.w3.org/2000/svg"
 width="108.000000pt" height="108.000000pt" viewBox="0 0 108.000000 108.000000"
 preserveAspectRatio="xMidYMid meet">
<metadata>
Created by potrace 1.14, written by Peter Selinger 2001-2017
</metadata>
<g transform="translate(0.000000,108.000000) scale(0.100000,-0.100000)"
fill="#000000" stroke="none">
<path d="M466 979 c3 -5 10 -7 15 -4 5 4 9 1 9 -4 0 -11 -34 -10 -45 1 -6 6
-65 -20 -65 -28 0 -3 6 -2 13 2 7 4 9 3 4 -2 -5 -5 -12 -9 -15 -9 -4 0 -14 -4
-22 -9 -12 -7 -13 -6 -2 5 17 19 15 33 -3 15 -8 -8 -15 -21 -15 -28 0 -10 -3
-9 -10 2 -9 13 -10 13 -10 0 0 -13 -1 -13 -10 0 -5 8 -10 10 -10 5 0 -6 4 -15
10 -21 6 -6 3 -10 -10 -11 -13 -1 -17 3 -13 15 4 14 3 14 -5 3 -6 -8 -8 -21
-4 -29 3 -9 1 -13 -5 -9 -5 3 -16 -5 -23 -18 -7 -14 -18 -25 -23 -25 -6 0 -2
9 8 20 10 11 14 20 9 20 -14 0 -31 -32 -28 -52 1 -11 -3 -15 -12 -11 -9 3 -14
-1 -14 -12 0 -10 5 -13 12 -9 7 4 8 3 4 -5 -4 -6 -12 -9 -17 -6 -5 4 -9 1 -9
-5 0 -6 -5 -8 -13 -4 -7 5 -6 0 3 -11 14 -17 13 -18 -8 -13 -19 5 -21 4 -11
-8 6 -7 15 -11 20 -8 5 3 9 3 9 -1 0 -3 -11 -10 -24 -15 -20 -7 -24 -14 -20
-35 3 -17 1 -24 -6 -20 -6 3 -7 0 -4 -9 3 -9 10 -13 15 -10 5 3 6 -2 3 -10 -3
-9 -10 -14 -14 -11 -5 3 -7 -3 -5 -12 2 -10 4 -22 4 -26 1 -5 7 -5 14 -1 8 5
8 3 -2 -9 -7 -9 -17 -14 -22 -11 -5 3 -6 -3 -2 -12 4 -11 8 -13 11 -6 6 20 20
13 15 -8 -3 -11 -10 -17 -17 -13 -6 3 -3 -2 6 -13 17 -19 17 -21 0 -38 -16
-16 -16 -17 2 -10 15 6 17 4 11 -7 -12 -18 -14 -49 -3 -43 4 3 8 -1 8 -10 0
-8 -6 -17 -12 -20 -7 -3 -2 -3 12 1 23 5 24 5 10 -12 -8 -11 -10 -16 -4 -12 7
4 18 -1 25 -10 12 -15 12 -16 -3 -10 -12 4 -15 2 -12 -8 3 -8 9 -14 12 -13 22
2 28 -6 30 -40 3 -61 5 -69 18 -69 7 0 11 4 9 8 -7 10 22 5 32 -6 4 -4 2 -5
-4 -1 -7 4 -13 2 -13 -3 0 -15 13 -14 28 1 10 10 15 8 27 -9 14 -20 49 -24 77
-7 11 6 11 5 0 -8 -8 -9 -9 -19 -4 -22 6 -3 15 1 22 9 12 14 16 13 38 -7 14
-13 22 -18 18 -11 -3 6 -1 15 5 19 7 4 9 3 6 -2 -3 -6 -2 -16 3 -24 7 -12 12
-12 22 -2 6 6 19 12 27 12 14 0 14 -1 1 -10 -8 -5 -11 -10 -6 -10 5 0 17 7 27
16 13 12 19 12 25 3 4 -8 3 -10 -4 -5 -7 4 -12 3 -12 -3 0 -5 9 -9 20 -8 11 1
19 6 16 12 -5 13 23 13 43 0 10 -6 12 -4 6 5 -6 9 -2 10 15 5 14 -5 20 -3 16
3 -11 18 18 20 38 3 18 -15 18 -15 7 6 -8 16 -8 24 1 29 6 4 8 3 4 -4 -3 -6
-2 -13 4 -17 5 -3 10 1 10 9 0 10 6 13 17 9 12 -5 14 -3 8 7 -6 10 -4 12 8 7
12 -4 15 -1 12 14 -2 11 -1 17 4 15 12 -8 62 29 54 39 -5 5 0 3 9 -4 15 -11
17 -10 13 8 -3 14 0 19 7 15 8 -5 9 -1 5 10 -4 10 -3 15 3 11 19 -12 31 5 19
27 -6 11 -7 18 -2 15 5 -3 17 3 26 14 11 13 13 19 4 19 -8 0 -7 3 3 9 8 6 18
7 22 5 4 -3 5 2 1 11 -4 12 -8 14 -13 4 -5 -7 -7 -2 -7 14 2 18 5 23 14 16 7
-7 14 -6 19 2 5 8 3 9 -6 4 -9 -6 -10 -2 -5 15 5 17 4 21 -6 15 -11 -6 -12 -5
-1 6 10 11 8 16 -10 27 -13 7 -15 11 -6 8 10 -3 20 0 24 6 4 6 3 8 -4 4 -5 -3
-12 -1 -14 5 -2 6 -18 12 -36 14 -29 2 -31 1 -20 -19 11 -20 10 -20 -7 -6 -17
14 -18 13 -12 -2 4 -11 2 -17 -4 -15 -6 1 -13 -8 -15 -21 -2 -14 0 -21 6 -17
16 10 11 -1 -7 -16 -14 -12 -16 -12 -8 0 5 10 4 12 -3 7 -8 -5 -9 -13 -2 -26
7 -13 6 -21 -5 -30 -9 -7 -18 -10 -22 -6 -3 3 0 6 7 6 7 0 11 2 8 5 -3 3 -13
3 -22 -1 -15 -6 -15 -7 1 -20 17 -12 17 -13 -3 -10 -12 3 -21 -1 -21 -9 0 -7
7 -11 16 -8 11 3 11 1 -2 -7 -14 -9 -22 -9 -35 2 -12 9 -11 5 3 -11 11 -14 14
-21 8 -17 -7 4 -13 2 -13 -3 0 -6 -4 -11 -10 -11 -5 0 -7 8 -4 18 5 14 4 14
-4 2 -8 -10 -7 -19 1 -29 10 -12 8 -13 -12 -6 -13 4 -21 3 -18 -2 3 -5 -9 -10
-26 -11 -18 -2 -33 -7 -35 -12 -2 -6 -8 -10 -13 -10 -6 0 -8 4 -5 8 3 5 -1 9
-9 9 -8 0 -12 -4 -9 -8 2 -4 -10 -6 -28 -4 -18 2 -33 4 -33 5 0 6 -36 7 -40 0
-2 -4 5 -7 17 -6 12 0 23 -6 25 -14 3 -10 2 -11 -4 -4 -4 6 -16 10 -26 8 -9
-1 -24 4 -31 12 -17 17 -30 19 -20 2 4 -7 3 -8 -4 -4 -6 4 -9 13 -5 21 3 8 1
15 -5 15 -6 0 -9 8 -8 18 3 18 24 23 43 10 8 -7 11 -2 9 16 -2 17 1 23 10 19
8 -3 11 -10 7 -16 -3 -6 -1 -7 6 -3 6 4 9 11 6 16 -3 5 -1 11 5 15 6 4 7 11 4
17 -4 7 -2 8 4 4 6 -4 10 -12 9 -19 -2 -7 1 -2 7 11 5 12 14 22 19 22 4 0 5
-6 1 -12 -5 -9 -2 -9 9 1 18 15 23 26 7 16 -17 -11 -11 5 11 28 18 18 21 19
16 4 -4 -11 -3 -16 3 -12 6 3 10 12 10 20 0 7 8 16 18 20 14 5 15 4 5 -6 -7
-7 -13 -18 -13 -23 0 -6 8 1 17 14 10 14 17 28 16 32 -2 4 3 5 11 2 9 -4 13 2
11 20 -2 15 1 24 6 20 5 -3 7 -9 4 -14 -3 -5 0 -12 6 -16 7 -4 9 -3 5 4 -3 6
-2 13 4 17 6 4 8 10 5 15 -3 5 -1 11 5 15 5 3 10 0 11 -7 0 -7 4 -2 10 10 5
13 15 22 21 20 7 -3 18 1 25 8 17 16 17 27 1 18 -9 -6 -9 -3 1 9 10 13 17 14
33 6 12 -6 18 -7 14 -1 -6 9 23 40 31 34 3 -2 8 0 11 4 4 4 1 4 -5 0 -8 -4
-13 -1 -13 9 0 8 8 19 17 22 9 4 24 14 34 24 17 17 17 18 -3 24 -14 5 -17 10
-9 18 16 16 14 32 -2 18 -16 -13 -28 -5 -20 15 3 8 -1 14 -10 14 -13 0 -31 33
-28 52 0 4 -6 5 -14 2 -11 -5 -13 -2 -9 9 4 12 1 15 -15 12 -14 -3 -18 0 -14
11 3 8 2 14 -3 13 -21 -4 -34 2 -34 15 0 20 -17 29 -26 15 -5 -8 -3 -9 6 -4 9
5 11 4 6 -4 -4 -6 -12 -9 -17 -5 -5 3 -7 10 -4 15 4 5 -8 9 -25 9 -25 0 -31 4
-26 15 3 8 1 15 -4 15 -6 0 -10 -8 -10 -17 0 -15 -2 -14 -16 3 -14 17 -15 17
-10 1 3 -11 2 -16 -4 -12 -6 3 -10 13 -10 21 0 17 -16 19 -26 2 -5 -7 -3 -8 6
-3 8 5 11 4 6 -3 -9 -15 -38 -3 -29 12 3 6 1 6 -8 -1 -7 -7 -17 -13 -22 -13
-4 0 -5 6 -1 13 4 6 -3 3 -16 -8 -13 -11 -20 -14 -16 -7 4 6 4 12 -1 13 -4 0
-16 2 -26 4 -9 2 -15 -1 -11 -6z m-31 -28 c-3 -6 -11 -11 -16 -11 -5 0 -4 6 3
14 14 16 24 13 13 -3z m99 -103 c-3 -4 2 -5 10 -2 9 3 14 10 11 14 -7 11 15 7
45 -10 14 -7 27 -13 30 -12 12 4 40 -10 40 -20 0 -7 5 -6 14 1 12 10 14 8 10
-11 -2 -13 -2 -17 2 -11 4 10 9 9 21 -3 17 -16 29 -79 14 -69 -5 3 -12 1 -15
-4 -4 -5 -1 -13 5 -17 8 -4 9 -3 5 4 -4 8 -2 10 7 6 11 -4 9 -11 -12 -32 -27
-29 -43 -34 -21 -7 7 8 9 15 4 15 -13 0 -84 -83 -78 -92 3 -4 -2 -5 -10 -2 -9
3 -16 1 -16 -5 0 -6 -7 -8 -17 -4 -10 4 -14 2 -10 -4 4 -6 0 -16 -8 -23 -8 -7
-12 -17 -8 -24 4 -6 -1 -5 -10 3 -16 12 -21 9 -18 -12 1 -4 -10 -12 -24 -19
-13 -6 -21 -16 -18 -22 4 -6 -1 -5 -10 3 -15 12 -17 12 -11 -3 4 -10 0 -18
-10 -22 -9 -3 -13 -10 -10 -15 3 -5 -2 -6 -11 -3 -12 5 -16 2 -13 -12 2 -10
-3 -19 -9 -20 -7 -1 -18 -2 -24 -3 -5 0 -7 -5 -4 -11 3 -5 -1 -10 -9 -10 -9 0
-16 -4 -16 -10 0 -5 -5 -10 -11 -10 -5 0 -7 6 -4 13 4 6 1 5 -7 -3 -7 -8 -19
-16 -27 -18 -12 -3 -12 0 -1 13 11 13 10 15 -4 9 -9 -3 -16 -1 -16 6 0 6 -4 9
-9 6 -5 -3 -15 2 -22 11 -8 9 -9 14 -3 10 7 -4 15 0 18 8 3 9 -1 18 -10 22 -9
3 -14 13 -11 24 3 11 1 17 -4 13 -5 -3 -9 -2 -10 3 0 4 -2 18 -5 31 -2 13 1
22 9 22 8 0 7 4 -3 10 -12 8 -12 10 5 11 18 0 18 1 3 7 -16 7 -16 10 -3 36 9
16 15 34 14 40 -3 26 2 37 14 30 9 -6 9 -5 0 7 -10 13 -10 16 2 16 8 0 15 -5
15 -10 0 -6 3 -8 6 -4 3 3 2 12 -2 19 -12 18 -14 39 -4 33 16 -10 42 8 37 26
-3 13 0 16 11 12 11 -5 13 -3 7 6 -6 11 -3 11 16 0 23 -12 23 -11 9 6 -9 11
-10 16 -2 11 10 -6 16 3 14 25 -1 3 5 6 13 6 8 0 11 -5 7 -11 -7 -13 -13 -34
-15 -58 -1 -9 -5 -14 -9 -12 -4 3 -8 0 -8 -5 0 -6 -5 -11 -11 -11 -8 0 -8 5 1
15 7 8 10 15 6 15 -3 0 -8 0 -11 0 -3 0 -4 -2 -2 -3 6 -9 -27 -36 -37 -30 -6
3 -7 2 -3 -2 11 -13 38 -15 31 -3 -4 7 -2 8 5 4 6 -4 9 -12 5 -17 -3 -5 -2
-15 3 -22 12 -15 10 -26 -5 -54 -11 -19 -10 -23 3 -23 8 0 15 -5 15 -11 0 -5
4 -7 10 -4 5 3 7 0 4 -8 -3 -8 1 -14 10 -14 8 0 13 4 11 8 -3 4 2 9 10 12 10
4 12 1 8 -11 -6 -15 -4 -15 14 1 14 12 23 15 28 7 3 -5 11 -8 16 -5 5 4 9 1 9
-5 0 -6 5 -8 10 -5 8 5 7 12 -2 23 -11 15 -11 15 3 5 9 -7 19 -10 22 -6 11 10
8 51 -3 58 -8 5 -7 11 1 21 9 11 8 18 -2 31 -8 9 -9 14 -2 10 6 -4 13 -4 16 0
2 5 2 1 0 -7 -3 -11 -1 -12 8 -3 13 13 2 36 -13 27 -7 -5 -9 -2 -6 7 3 8 -1
20 -9 28 -13 12 -14 11 -9 -10 7 -23 6 -23 -8 -5 -16 20 -16 20 -17 0 -1 -16
-2 -17 -6 -1 -5 18 -23 24 -23 7 0 -5 -5 -10 -11 -10 -5 0 -7 6 -3 13 6 9 5 9
-7 0 -10 -8 -19 -9 -29 -1 -12 8 -11 9 4 4 14 -5 16 -3 9 6 -13 18 -11 43 4
43 6 0 15 4 20 9 5 5 3 6 -4 2 -7 -4 -13 -2 -13 5 0 6 8 9 19 6 13 -3 21 1 24
14 3 12 11 17 20 13 9 -3 14 -13 11 -22 -3 -9 2 -5 12 10 12 18 21 23 25 16 4
-7 5 -16 3 -20z m376 -112 c0 -2 -7 -9 -15 -16 -13 -11 -14 -10 -9 4 5 14 24
23 24 12z m-233 -91 c0 -8 -4 -12 -9 -9 -5 3 -6 10 -3 15 9 13 12 11 12 -6z
m-452 -384 c3 -5 2 -12 -3 -15 -5 -3 -9 1 -9 9 0 17 3 19 12 6z m360 -1 c3 -5
1 -10 -4 -10 -6 0 -11 5 -11 10 0 6 2 10 4 10 3 0 8 -4 11 -10z"/>
<path d="M576 847 c3 -10 9 -15 12 -12 3 3 0 11 -7 18 -10 9 -11 8 -5 -6z"/>
<path d="M635 820 c-3 -5 -1 -10 4 -10 6 0 11 5 11 10 0 6 -2 10 -4 10 -3 0
-8 -4 -11 -10z"/>
<path d="M531 676 c-8 -10 -8 -16 2 -24 10 -9 13 -6 13 13 0 29 0 29 -15 11z"/>
<path d="M345 670 c-4 -6 -12 -7 -18 -4 -7 4 -8 3 -4 -1 13 -15 34 -14 34 1 0
17 -4 18 -12 4z"/>
<path d="M526 588 c-9 -12 -16 -27 -16 -33 1 -5 8 3 16 18 8 15 19 25 24 22 6
-4 10 -1 10 4 0 18 -18 12 -34 -11z"/>
<path d="M450 581 c0 -6 4 -13 10 -16 6 -3 7 1 4 9 -7 18 -14 21 -14 7z"/>
<path d="M550 570 c-8 -5 -12 -12 -9 -15 4 -3 12 1 19 10 14 17 11 19 -10 5z"/>
<path d="M850 855 c0 -5 5 -17 10 -25 5 -8 10 -10 10 -5 0 6 -5 17 -10 25 -5
8 -10 11 -10 5z"/>
<path d="M906 338 c3 -5 10 -6 15 -3 13 9 11 12 -6 12 -8 0 -12 -4 -9 -9z"/>
<path d="M447 329 c7 -7 15 -10 18 -7 3 3 -2 9 -12 12 -14 6 -15 5 -6 -5z"/>
<path d="M790 219 c0 -5 5 -7 10 -4 6 3 10 8 10 11 0 2 -4 4 -10 4 -5 0 -10
-5 -10 -11z"/>
<path d="M413 155 c0 -8 4 -12 9 -9 5 3 6 10 3 15 -9 13 -12 11 -12 -6z"/>
</g>
</svg>
